<svg width="15" height="12" viewBox="0 0 15 12" fill="none" xmlns="http://www.w3.org/2000/svg">
<path d="M5.3547 12L0.120667 5.942C0.0384552 5.83078 -0.00450406 5.68771 0.000374252 5.54139C0.00525257 5.39507 0.0576091 5.25627 0.146981 5.15273C0.236354 5.04919 0.356159 4.98853 0.482456 4.98288C0.608753 4.97723 0.73224 5.027 0.82824 5.12225L5.34466 10.3547L14.1718 0.139798C14.2678 0.0445517 14.3912 -0.00521812 14.5175 0.000433584C14.6438 0.00608529 14.7636 0.0667423 14.853 0.170283C14.9424 0.273824 14.9947 0.412623 14.9996 0.558943C15.0045 0.705263 14.9615 0.848327 14.8793 0.959547L5.3547 12Z" fill="#3B82F6"/>
</svg>
